# xmcd CD database file
#
# Track frame offsets:
#	187
#	30650
#	63902
#	89650
#	112532
#	137092
#	170572
#	208320
#	225130
#	242537
#
# Disc length: 3580 seconds
#
# Revision: 0
# Processed by: cddbd v1.5.1PL0 Copyright (c) Steve Scherf et al.
# Submitted via: CDex 1.50Beta7
#
DISCID=7a0dfa0a
DTITLE=DUKE JORDAN - FLIGHT TO DENMARK
DYEAR=1974
DGENRE=Jazz
TTITLE0=NO PROBLEMS
TTITLE1=HERE'S THAT RAINY DAY
TTITLE2=EVERYTHING HAPPENS TO ME
TTITLE3=GLAD I MET PAT - take 3
TTITLE4=GLAD I MET PAT - take 4
TTITLE5=HOW DEEP IS THE OCEAN
TTITLE6=ON GREEN DOLPHIN STREET
TTITLE7=IF I DID - WOULD YOU? - take 1
TTITLE8=IF I DID - WOULD YOU? - take 2
TTITLE9=FLIGHT TO DENMARK
EXTD=YEAR: 1974
EXTT0=
EXTT1=
EXTT2=
EXTT3=
EXTT4=
EXTT5=
EXTT6=
EXTT7=
EXTT8=
EXTT9=
PLAYORDER=
